<mxfile host="app.diagrams.net" modified="2021-01-13T21:26:07.591Z" agent="5.0 (Macintosh)" etag="pTVeH_rnzpQi0yPQrHnp" version="14.2.2" type="github">
  <diagram id="WFQadTtpuY_C7dDkhRBZ" name="Page-1">
    <mxGraphModel dx="802" dy="442" grid="1" gridSize="10" guides="1" tooltips="1" connect="1" arrows="1" fold="1" page="1" pageScale="1" pageWidth="827" pageHeight="1169" math="0" shadow="0">
      <root>
        <mxCell id="0" />
        <mxCell id="1" parent="0" />
        <mxCell id="yNQHmbNTrjHeebdMgLnV-1" value="User Exec" style="rounded=0;whiteSpace=wrap;html=1;" vertex="1" parent="1">
          <mxGeometry x="40" y="250" width="200" height="30" as="geometry" />
        </mxCell>
        <mxCell id="yNQHmbNTrjHeebdMgLnV-2" value="enable" style="rounded=1;whiteSpace=wrap;html=1;" vertex="1" parent="1">
          <mxGeometry x="120" y="290" width="80" height="20" as="geometry" />
        </mxCell>
        <mxCell id="yNQHmbNTrjHeebdMgLnV-3" value="exit" style="rounded=1;whiteSpace=wrap;html=1;" vertex="1" parent="1">
          <mxGeometry x="120" y="320" width="80" height="20" as="geometry" />
        </mxCell>
        <mxCell id="yNQHmbNTrjHeebdMgLnV-4" value="" style="endArrow=none;html=1;entryX=0.25;entryY=1;entryDx=0;entryDy=0;exitX=0;exitY=0.5;exitDx=0;exitDy=0;" edge="1" parent="1" source="yNQHmbNTrjHeebdMgLnV-2" target="yNQHmbNTrjHeebdMgLnV-1">
          <mxGeometry width="50" height="50" relative="1" as="geometry">
            <mxPoint x="145" y="330" as="sourcePoint" />
            <mxPoint x="130" y="320" as="targetPoint" />
            <Array as="points">
              <mxPoint x="90" y="300" />
            </Array>
          </mxGeometry>
        </mxCell>
        <mxCell id="yNQHmbNTrjHeebdMgLnV-6" value="" style="endArrow=none;html=1;entryX=0.25;entryY=1;entryDx=0;entryDy=0;exitX=0;exitY=0.5;exitDx=0;exitDy=0;" edge="1" parent="1" source="yNQHmbNTrjHeebdMgLnV-3" target="yNQHmbNTrjHeebdMgLnV-1">
          <mxGeometry width="50" height="50" relative="1" as="geometry">
            <mxPoint x="120" y="420" as="sourcePoint" />
            <mxPoint x="170" y="370" as="targetPoint" />
            <Array as="points">
              <mxPoint x="90" y="330" />
            </Array>
          </mxGeometry>
        </mxCell>
        <mxCell id="yNQHmbNTrjHeebdMgLnV-10" value="Privileged Exec" style="rounded=0;whiteSpace=wrap;html=1;" vertex="1" parent="1">
          <mxGeometry x="400" y="250" width="200" height="30" as="geometry" />
        </mxCell>
        <mxCell id="yNQHmbNTrjHeebdMgLnV-11" value="Global Configurations" style="rounded=0;whiteSpace=wrap;html=1;" vertex="1" parent="1">
          <mxGeometry x="760" y="250" width="200" height="30" as="geometry" />
        </mxCell>
        <mxCell id="yNQHmbNTrjHeebdMgLnV-12" value="Interface Configurations" style="rounded=0;whiteSpace=wrap;html=1;" vertex="1" parent="1">
          <mxGeometry x="1120" y="250" width="200" height="30" as="geometry" />
        </mxCell>
        <mxCell id="yNQHmbNTrjHeebdMgLnV-14" value="&lt;h1&gt;User Exec&lt;br&gt;&lt;/h1&gt;&lt;p&gt;Menu step for either connecting to Meraki Dashboard with API Key, or to Exit the application&lt;br&gt;&lt;/p&gt;" style="text;html=1;strokeColor=none;fillColor=none;spacing=5;spacingTop=-20;whiteSpace=wrap;overflow=hidden;rounded=0;" vertex="1" parent="1">
          <mxGeometry x="40" y="40" width="160" height="140" as="geometry" />
        </mxCell>
        <mxCell id="yNQHmbNTrjHeebdMgLnV-15" value="&lt;h1&gt;Privileged Exec&lt;br&gt;&lt;/h1&gt;Menu step for showing data and configurations for Organisational, Network, Device Or Service Level" style="text;html=1;strokeColor=none;fillColor=none;spacing=5;spacingTop=-20;whiteSpace=wrap;overflow=hidden;rounded=0;" vertex="1" parent="1">
          <mxGeometry x="400" y="40" width="160" height="140" as="geometry" />
        </mxCell>
        <mxCell id="yNQHmbNTrjHeebdMgLnV-16" value="&lt;h1&gt;Global Configuration&lt;br&gt;&lt;/h1&gt;Menu step for configuring Global Devices or services such as Network settings or device settings. Interfaces on Devices" style="text;html=1;strokeColor=none;fillColor=none;spacing=5;spacingTop=-20;whiteSpace=wrap;overflow=hidden;rounded=0;" vertex="1" parent="1">
          <mxGeometry x="760" y="40" width="160" height="170" as="geometry" />
        </mxCell>
        <mxCell id="yNQHmbNTrjHeebdMgLnV-17" value="&lt;h1&gt;Interface Configuration&lt;br&gt;&lt;/h1&gt;Menu Step for configuring Specifi Interfaces on Devices" style="text;html=1;strokeColor=none;fillColor=none;spacing=5;spacingTop=-20;whiteSpace=wrap;overflow=hidden;rounded=0;" vertex="1" parent="1">
          <mxGeometry x="1120" y="40" width="160" height="190" as="geometry" />
        </mxCell>
        <mxCell id="yNQHmbNTrjHeebdMgLnV-18" value="show networks" style="rounded=1;whiteSpace=wrap;html=1;" vertex="1" parent="1">
          <mxGeometry x="480" y="320" width="100" height="20" as="geometry" />
        </mxCell>
        <mxCell id="yNQHmbNTrjHeebdMgLnV-19" value="show run networks" style="rounded=1;whiteSpace=wrap;html=1;" vertex="1" parent="1">
          <mxGeometry x="480" y="350" width="110" height="20" as="geometry" />
        </mxCell>
        <mxCell id="yNQHmbNTrjHeebdMgLnV-20" value="select network" style="rounded=1;whiteSpace=wrap;html=1;" vertex="1" parent="1">
          <mxGeometry x="480" y="380" width="110" height="20" as="geometry" />
        </mxCell>
        <mxCell id="yNQHmbNTrjHeebdMgLnV-21" value="configure" style="rounded=1;whiteSpace=wrap;html=1;" vertex="1" parent="1">
          <mxGeometry x="600" y="290" width="100" height="20" as="geometry" />
        </mxCell>
        <mxCell id="yNQHmbNTrjHeebdMgLnV-22" value="" style="endArrow=classic;html=1;exitX=1;exitY=0.5;exitDx=0;exitDy=0;entryX=0;entryY=0.5;entryDx=0;entryDy=0;" edge="1" parent="1" source="yNQHmbNTrjHeebdMgLnV-2" target="yNQHmbNTrjHeebdMgLnV-10">
          <mxGeometry width="50" height="50" relative="1" as="geometry">
            <mxPoint x="250" y="330" as="sourcePoint" />
            <mxPoint x="300" y="280" as="targetPoint" />
            <Array as="points">
              <mxPoint x="320" y="300" />
              <mxPoint x="320" y="265" />
            </Array>
          </mxGeometry>
        </mxCell>
        <mxCell id="yNQHmbNTrjHeebdMgLnV-23" value="" style="endArrow=classic;html=1;exitX=1;exitY=0.5;exitDx=0;exitDy=0;entryX=0;entryY=0.5;entryDx=0;entryDy=0;" edge="1" parent="1" source="yNQHmbNTrjHeebdMgLnV-21" target="yNQHmbNTrjHeebdMgLnV-11">
          <mxGeometry width="50" height="50" relative="1" as="geometry">
            <mxPoint x="660" y="300" as="sourcePoint" />
            <mxPoint x="710" y="250" as="targetPoint" />
            <Array as="points">
              <mxPoint x="710" y="300" />
              <mxPoint x="710" y="265" />
            </Array>
          </mxGeometry>
        </mxCell>
        <mxCell id="yNQHmbNTrjHeebdMgLnV-25" value="interface &amp;lt;int&amp;gt;" style="rounded=1;whiteSpace=wrap;html=1;" vertex="1" parent="1">
          <mxGeometry x="840" y="290" width="100" height="20" as="geometry" />
        </mxCell>
        <mxCell id="yNQHmbNTrjHeebdMgLnV-27" value="show mx interfaces" style="rounded=1;whiteSpace=wrap;html=1;" vertex="1" parent="1">
          <mxGeometry x="560" y="410" width="110" height="20" as="geometry" />
        </mxCell>
        <mxCell id="yNQHmbNTrjHeebdMgLnV-28" value="show run switch" style="rounded=1;whiteSpace=wrap;html=1;" vertex="1" parent="1">
          <mxGeometry x="560" y="440" width="110" height="20" as="geometry" />
        </mxCell>
        <mxCell id="yNQHmbNTrjHeebdMgLnV-29" value="show switch interface brief" style="rounded=1;whiteSpace=wrap;html=1;" vertex="1" parent="1">
          <mxGeometry x="560" y="470" width="150" height="20" as="geometry" />
        </mxCell>
        <mxCell id="yNQHmbNTrjHeebdMgLnV-30" value="select switch" style="rounded=1;whiteSpace=wrap;html=1;" vertex="1" parent="1">
          <mxGeometry x="560" y="500" width="110" height="20" as="geometry" />
        </mxCell>
        <mxCell id="yNQHmbNTrjHeebdMgLnV-31" value="" style="endArrow=none;dashed=1;html=1;dashPattern=1 3;strokeWidth=2;exitX=1;exitY=0.5;exitDx=0;exitDy=0;entryX=0;entryY=0.5;entryDx=0;entryDy=0;" edge="1" parent="1" source="yNQHmbNTrjHeebdMgLnV-30" target="yNQHmbNTrjHeebdMgLnV-25">
          <mxGeometry width="50" height="50" relative="1" as="geometry">
            <mxPoint x="730" y="440" as="sourcePoint" />
            <mxPoint x="780" y="390" as="targetPoint" />
            <Array as="points">
              <mxPoint x="760" y="510" />
              <mxPoint x="760" y="300" />
            </Array>
          </mxGeometry>
        </mxCell>
        <mxCell id="yNQHmbNTrjHeebdMgLnV-32" value="do show mx" style="rounded=1;whiteSpace=wrap;html=1;" vertex="1" parent="1">
          <mxGeometry x="840" y="320" width="100" height="20" as="geometry" />
        </mxCell>
        <mxCell id="yNQHmbNTrjHeebdMgLnV-33" value="do show switch" style="rounded=1;whiteSpace=wrap;html=1;" vertex="1" parent="1">
          <mxGeometry x="840" y="350" width="100" height="20" as="geometry" />
        </mxCell>
        <mxCell id="yNQHmbNTrjHeebdMgLnV-34" value="do show switch brief" style="rounded=1;whiteSpace=wrap;html=1;" vertex="1" parent="1">
          <mxGeometry x="840" y="380" width="120" height="20" as="geometry" />
        </mxCell>
        <mxCell id="yNQHmbNTrjHeebdMgLnV-35" value="do select switch" style="rounded=1;whiteSpace=wrap;html=1;" vertex="1" parent="1">
          <mxGeometry x="840" y="410" width="100" height="20" as="geometry" />
        </mxCell>
        <mxCell id="yNQHmbNTrjHeebdMgLnV-36" value="interface &amp;lt;int&amp;gt;" style="rounded=1;whiteSpace=wrap;html=1;" vertex="1" parent="1">
          <mxGeometry x="920" y="440" width="100" height="20" as="geometry" />
        </mxCell>
        <mxCell id="yNQHmbNTrjHeebdMgLnV-37" value="" style="endArrow=none;html=1;entryX=0.25;entryY=1;entryDx=0;entryDy=0;exitX=0;exitY=0.5;exitDx=0;exitDy=0;" edge="1" parent="1" source="yNQHmbNTrjHeebdMgLnV-18" target="yNQHmbNTrjHeebdMgLnV-10">
          <mxGeometry width="50" height="50" relative="1" as="geometry">
            <mxPoint x="430" y="470" as="sourcePoint" />
            <mxPoint x="480" y="420" as="targetPoint" />
            <Array as="points">
              <mxPoint x="450" y="330" />
            </Array>
          </mxGeometry>
        </mxCell>
        <mxCell id="yNQHmbNTrjHeebdMgLnV-38" value="" style="endArrow=none;html=1;entryX=0.25;entryY=1;entryDx=0;entryDy=0;exitX=0;exitY=0.5;exitDx=0;exitDy=0;" edge="1" parent="1" source="yNQHmbNTrjHeebdMgLnV-19" target="yNQHmbNTrjHeebdMgLnV-10">
          <mxGeometry width="50" height="50" relative="1" as="geometry">
            <mxPoint x="400" y="420" as="sourcePoint" />
            <mxPoint x="450" y="370" as="targetPoint" />
            <Array as="points">
              <mxPoint x="450" y="360" />
            </Array>
          </mxGeometry>
        </mxCell>
        <mxCell id="yNQHmbNTrjHeebdMgLnV-39" value="" style="endArrow=none;html=1;exitX=0;exitY=0.5;exitDx=0;exitDy=0;entryX=0.25;entryY=1;entryDx=0;entryDy=0;" edge="1" parent="1" source="yNQHmbNTrjHeebdMgLnV-20" target="yNQHmbNTrjHeebdMgLnV-10">
          <mxGeometry width="50" height="50" relative="1" as="geometry">
            <mxPoint x="360" y="420" as="sourcePoint" />
            <mxPoint x="410" y="370" as="targetPoint" />
            <Array as="points">
              <mxPoint x="450" y="390" />
            </Array>
          </mxGeometry>
        </mxCell>
        <mxCell id="yNQHmbNTrjHeebdMgLnV-40" value="" style="endArrow=none;html=1;entryX=0.25;entryY=1;entryDx=0;entryDy=0;exitX=0;exitY=0.5;exitDx=0;exitDy=0;" edge="1" parent="1" source="yNQHmbNTrjHeebdMgLnV-27" target="yNQHmbNTrjHeebdMgLnV-20">
          <mxGeometry width="50" height="50" relative="1" as="geometry">
            <mxPoint x="470" y="480" as="sourcePoint" />
            <mxPoint x="520" y="430" as="targetPoint" />
            <Array as="points">
              <mxPoint x="508" y="420" />
            </Array>
          </mxGeometry>
        </mxCell>
        <mxCell id="yNQHmbNTrjHeebdMgLnV-41" value="" style="endArrow=none;html=1;entryX=0.25;entryY=1;entryDx=0;entryDy=0;exitX=0;exitY=0.5;exitDx=0;exitDy=0;" edge="1" parent="1" source="yNQHmbNTrjHeebdMgLnV-28" target="yNQHmbNTrjHeebdMgLnV-20">
          <mxGeometry width="50" height="50" relative="1" as="geometry">
            <mxPoint x="450" y="500" as="sourcePoint" />
            <mxPoint x="500" y="450" as="targetPoint" />
            <Array as="points">
              <mxPoint x="508" y="450" />
            </Array>
          </mxGeometry>
        </mxCell>
        <mxCell id="yNQHmbNTrjHeebdMgLnV-42" value="" style="endArrow=none;html=1;entryX=0.25;entryY=1;entryDx=0;entryDy=0;exitX=0;exitY=0.5;exitDx=0;exitDy=0;" edge="1" parent="1" source="yNQHmbNTrjHeebdMgLnV-29" target="yNQHmbNTrjHeebdMgLnV-20">
          <mxGeometry width="50" height="50" relative="1" as="geometry">
            <mxPoint x="470" y="540" as="sourcePoint" />
            <mxPoint x="520" y="490" as="targetPoint" />
            <Array as="points">
              <mxPoint x="508" y="480" />
            </Array>
          </mxGeometry>
        </mxCell>
        <mxCell id="yNQHmbNTrjHeebdMgLnV-43" value="" style="endArrow=none;html=1;entryX=0.25;entryY=1;entryDx=0;entryDy=0;exitX=0;exitY=0.5;exitDx=0;exitDy=0;" edge="1" parent="1" source="yNQHmbNTrjHeebdMgLnV-30" target="yNQHmbNTrjHeebdMgLnV-20">
          <mxGeometry width="50" height="50" relative="1" as="geometry">
            <mxPoint x="420" y="530" as="sourcePoint" />
            <mxPoint x="470" y="480" as="targetPoint" />
            <Array as="points">
              <mxPoint x="508" y="510" />
            </Array>
          </mxGeometry>
        </mxCell>
        <mxCell id="yNQHmbNTrjHeebdMgLnV-45" value="" style="endArrow=none;html=1;entryX=0;entryY=0.5;entryDx=0;entryDy=0;exitX=1;exitY=0.5;exitDx=0;exitDy=0;" edge="1" parent="1" source="yNQHmbNTrjHeebdMgLnV-30" target="yNQHmbNTrjHeebdMgLnV-21">
          <mxGeometry width="50" height="50" relative="1" as="geometry">
            <mxPoint x="720" y="500" as="sourcePoint" />
            <mxPoint x="720" y="350" as="targetPoint" />
            <Array as="points">
              <mxPoint x="720" y="500" />
              <mxPoint x="720" y="320" />
              <mxPoint x="580" y="320" />
              <mxPoint x="580" y="300" />
            </Array>
          </mxGeometry>
        </mxCell>
        <mxCell id="yNQHmbNTrjHeebdMgLnV-46" value="" style="endArrow=none;html=1;entryX=1;entryY=0.5;entryDx=0;entryDy=0;" edge="1" parent="1" target="yNQHmbNTrjHeebdMgLnV-27">
          <mxGeometry width="50" height="50" relative="1" as="geometry">
            <mxPoint x="720" y="420" as="sourcePoint" />
            <mxPoint x="670" y="350" as="targetPoint" />
          </mxGeometry>
        </mxCell>
        <mxCell id="yNQHmbNTrjHeebdMgLnV-47" value="" style="endArrow=none;html=1;entryX=1;entryY=0.5;entryDx=0;entryDy=0;" edge="1" parent="1" target="yNQHmbNTrjHeebdMgLnV-28">
          <mxGeometry width="50" height="50" relative="1" as="geometry">
            <mxPoint x="720" y="450" as="sourcePoint" />
            <mxPoint x="680" y="430" as="targetPoint" />
          </mxGeometry>
        </mxCell>
        <mxCell id="yNQHmbNTrjHeebdMgLnV-48" value="" style="endArrow=none;html=1;entryX=1;entryY=0.5;entryDx=0;entryDy=0;" edge="1" parent="1" target="yNQHmbNTrjHeebdMgLnV-29">
          <mxGeometry width="50" height="50" relative="1" as="geometry">
            <mxPoint x="720" y="480" as="sourcePoint" />
            <mxPoint x="690" y="440" as="targetPoint" />
          </mxGeometry>
        </mxCell>
        <mxCell id="yNQHmbNTrjHeebdMgLnV-51" value="" style="endArrow=none;html=1;entryX=0.25;entryY=1;entryDx=0;entryDy=0;exitX=0;exitY=0.5;exitDx=0;exitDy=0;" edge="1" parent="1" source="yNQHmbNTrjHeebdMgLnV-25" target="yNQHmbNTrjHeebdMgLnV-11">
          <mxGeometry width="50" height="50" relative="1" as="geometry">
            <mxPoint x="780" y="440" as="sourcePoint" />
            <mxPoint x="830" y="390" as="targetPoint" />
            <Array as="points">
              <mxPoint x="810" y="310" />
            </Array>
          </mxGeometry>
        </mxCell>
        <mxCell id="yNQHmbNTrjHeebdMgLnV-52" value="" style="endArrow=none;html=1;entryX=0.25;entryY=1;entryDx=0;entryDy=0;exitX=0;exitY=0.5;exitDx=0;exitDy=0;" edge="1" parent="1" source="yNQHmbNTrjHeebdMgLnV-32" target="yNQHmbNTrjHeebdMgLnV-11">
          <mxGeometry width="50" height="50" relative="1" as="geometry">
            <mxPoint x="790" y="430" as="sourcePoint" />
            <mxPoint x="840" y="380" as="targetPoint" />
            <Array as="points">
              <mxPoint x="810" y="330" />
            </Array>
          </mxGeometry>
        </mxCell>
        <mxCell id="yNQHmbNTrjHeebdMgLnV-53" value="" style="endArrow=none;html=1;entryX=0.25;entryY=1;entryDx=0;entryDy=0;exitX=0;exitY=0.5;exitDx=0;exitDy=0;" edge="1" parent="1" source="yNQHmbNTrjHeebdMgLnV-33" target="yNQHmbNTrjHeebdMgLnV-11">
          <mxGeometry width="50" height="50" relative="1" as="geometry">
            <mxPoint x="780" y="440" as="sourcePoint" />
            <mxPoint x="830" y="390" as="targetPoint" />
            <Array as="points">
              <mxPoint x="810" y="360" />
            </Array>
          </mxGeometry>
        </mxCell>
        <mxCell id="yNQHmbNTrjHeebdMgLnV-54" value="" style="endArrow=none;html=1;entryX=0.25;entryY=1;entryDx=0;entryDy=0;exitX=0;exitY=0.5;exitDx=0;exitDy=0;" edge="1" parent="1" source="yNQHmbNTrjHeebdMgLnV-34" target="yNQHmbNTrjHeebdMgLnV-11">
          <mxGeometry width="50" height="50" relative="1" as="geometry">
            <mxPoint x="770" y="460" as="sourcePoint" />
            <mxPoint x="820" y="410" as="targetPoint" />
            <Array as="points">
              <mxPoint x="810" y="390" />
            </Array>
          </mxGeometry>
        </mxCell>
        <mxCell id="yNQHmbNTrjHeebdMgLnV-55" value="" style="endArrow=none;html=1;entryX=0.25;entryY=1;entryDx=0;entryDy=0;exitX=0;exitY=0.5;exitDx=0;exitDy=0;" edge="1" parent="1" source="yNQHmbNTrjHeebdMgLnV-35" target="yNQHmbNTrjHeebdMgLnV-11">
          <mxGeometry width="50" height="50" relative="1" as="geometry">
            <mxPoint x="800" y="490" as="sourcePoint" />
            <mxPoint x="850" y="440" as="targetPoint" />
            <Array as="points">
              <mxPoint x="810" y="420" />
            </Array>
          </mxGeometry>
        </mxCell>
        <mxCell id="yNQHmbNTrjHeebdMgLnV-56" value="" style="endArrow=none;html=1;entryX=0.25;entryY=1;entryDx=0;entryDy=0;exitX=0;exitY=0.5;exitDx=0;exitDy=0;" edge="1" parent="1" source="yNQHmbNTrjHeebdMgLnV-36" target="yNQHmbNTrjHeebdMgLnV-35">
          <mxGeometry width="50" height="50" relative="1" as="geometry">
            <mxPoint x="810" y="530" as="sourcePoint" />
            <mxPoint x="860" y="480" as="targetPoint" />
            <Array as="points">
              <mxPoint x="865" y="450" />
            </Array>
          </mxGeometry>
        </mxCell>
        <mxCell id="yNQHmbNTrjHeebdMgLnV-58" value="show interface trunks" style="rounded=1;whiteSpace=wrap;html=1;" vertex="1" parent="1">
          <mxGeometry x="560" y="530" width="130" height="20" as="geometry" />
        </mxCell>
        <mxCell id="yNQHmbNTrjHeebdMgLnV-59" value="do select mx" style="rounded=1;whiteSpace=wrap;html=1;" vertex="1" parent="1">
          <mxGeometry x="840" y="470" width="100" height="20" as="geometry" />
        </mxCell>
        <mxCell id="yNQHmbNTrjHeebdMgLnV-60" value="interface &amp;lt;int&amp;gt;" style="rounded=1;whiteSpace=wrap;html=1;" vertex="1" parent="1">
          <mxGeometry x="920" y="500" width="100" height="20" as="geometry" />
        </mxCell>
        <mxCell id="yNQHmbNTrjHeebdMgLnV-61" value="" style="endArrow=none;html=1;entryX=0.25;entryY=1;entryDx=0;entryDy=0;exitX=0;exitY=0.5;exitDx=0;exitDy=0;" edge="1" parent="1" source="yNQHmbNTrjHeebdMgLnV-59" target="yNQHmbNTrjHeebdMgLnV-11">
          <mxGeometry width="50" height="50" relative="1" as="geometry">
            <mxPoint x="770" y="570" as="sourcePoint" />
            <mxPoint x="820" y="520" as="targetPoint" />
            <Array as="points">
              <mxPoint x="810" y="480" />
            </Array>
          </mxGeometry>
        </mxCell>
        <mxCell id="yNQHmbNTrjHeebdMgLnV-62" value="" style="endArrow=none;html=1;entryX=0.317;entryY=1.086;entryDx=0;entryDy=0;entryPerimeter=0;exitX=0;exitY=0.5;exitDx=0;exitDy=0;" edge="1" parent="1" source="yNQHmbNTrjHeebdMgLnV-60" target="yNQHmbNTrjHeebdMgLnV-59">
          <mxGeometry width="50" height="50" relative="1" as="geometry">
            <mxPoint x="850" y="570" as="sourcePoint" />
            <mxPoint x="900" y="520" as="targetPoint" />
            <Array as="points">
              <mxPoint x="872" y="510" />
            </Array>
          </mxGeometry>
        </mxCell>
        <mxCell id="yNQHmbNTrjHeebdMgLnV-63" value="" style="endArrow=classic;html=1;exitX=1;exitY=0.5;exitDx=0;exitDy=0;entryX=0;entryY=0.5;entryDx=0;entryDy=0;" edge="1" parent="1" source="yNQHmbNTrjHeebdMgLnV-25" target="yNQHmbNTrjHeebdMgLnV-12">
          <mxGeometry width="50" height="50" relative="1" as="geometry">
            <mxPoint x="970" y="320" as="sourcePoint" />
            <mxPoint x="1020" y="270" as="targetPoint" />
            <Array as="points">
              <mxPoint x="1040" y="300" />
              <mxPoint x="1040" y="265" />
            </Array>
          </mxGeometry>
        </mxCell>
        <mxCell id="yNQHmbNTrjHeebdMgLnV-64" value="" style="endArrow=classic;html=1;exitX=1;exitY=0.5;exitDx=0;exitDy=0;entryX=0;entryY=0.5;entryDx=0;entryDy=0;" edge="1" parent="1" source="yNQHmbNTrjHeebdMgLnV-36" target="yNQHmbNTrjHeebdMgLnV-12">
          <mxGeometry width="50" height="50" relative="1" as="geometry">
            <mxPoint x="1050" y="440" as="sourcePoint" />
            <mxPoint x="1100" y="390" as="targetPoint" />
            <Array as="points">
              <mxPoint x="1040" y="450" />
              <mxPoint x="1040" y="265" />
            </Array>
          </mxGeometry>
        </mxCell>
        <mxCell id="yNQHmbNTrjHeebdMgLnV-65" value="" style="endArrow=classic;html=1;exitX=1;exitY=0.5;exitDx=0;exitDy=0;entryX=0;entryY=0.5;entryDx=0;entryDy=0;" edge="1" parent="1" source="yNQHmbNTrjHeebdMgLnV-60" target="yNQHmbNTrjHeebdMgLnV-12">
          <mxGeometry width="50" height="50" relative="1" as="geometry">
            <mxPoint x="1080" y="470" as="sourcePoint" />
            <mxPoint x="1130" y="420" as="targetPoint" />
            <Array as="points">
              <mxPoint x="1040" y="510" />
              <mxPoint x="1040" y="265" />
            </Array>
          </mxGeometry>
        </mxCell>
        <mxCell id="yNQHmbNTrjHeebdMgLnV-66" value="show run switch" style="rounded=1;whiteSpace=wrap;html=1;" vertex="1" parent="1">
          <mxGeometry x="560" y="560" width="110" height="20" as="geometry" />
        </mxCell>
      </root>
    </mxGraphModel>
  </diagram>
</mxfile>
